<?xml version="1.0" encoding="utf-8"?>
<!-- Generator: Adobe Illustrator 16.0.0, SVG Export Plug-In . SVG Version: 6.00 Build 0)  -->
<!DOCTYPE svg PUBLIC "-//W3C//DTD SVG 1.1//EN" "http://www.w3.org/Graphics/SVG/1.1/DTD/svg11.dtd">
<svg version="1.1" id="Layer_1" xmlns="http://www.w3.org/2000/svg" xmlns:xlink="http://www.w3.org/1999/xlink" x="0px" y="0px"
	 width="273.846px" height="280px" viewBox="3.192 4.753 273.846 280" enable-background="new 3.192 4.753 273.846 280"
	 xml:space="preserve">
<g>
	<path fill="#B2928E" d="M104.541,167.661c18.835-1.64,37.779,1.51,55.078,9.137c6.011,0.783,12.111,0.385,17.967-1.172
		c7.755-3.187,15.977-5.108,24.346-5.672c-0.143-0.375-0.354-0.732-0.522-1.1l-0.772,0.325c0.086-0.011,0.288-0.257,0.604-0.687
		c-5.801-12.068-25.879-20.994-49.823-20.994c-23.606,0-43.462,8.662-49.58,20.472C102.737,167.861,103.637,167.743,104.541,167.661
		"/>
	<path fill="#99664D" d="M177.586,175.625c7.755-3.195,15.977-5.108,24.34-5.672c-0.133-0.375-0.354-0.732-0.518-1.095l-0.77,0.32
		c0.088-0.011,0.289-0.267,0.596-0.687c-2.432-4.551-6.062-8.346-10.492-10.986c-3.762,1.373-7.438,2.976-11.004,4.787
		c-1.236,0.459-2.5,0.834-3.781,1.127c-6.66,1.492-13.605,1.024-20.004-1.346c-13.102-4.808-27.024-6.959-40.961-6.326
		c-5.418,2.802-9.966,7.025-13.159,12.222c0.907-0.109,1.806-0.229,2.71-0.312c18.834-1.635,37.777,1.51,55.081,9.137
		C165.63,177.581,171.727,177.182,177.586,175.625"/>
	<rect x="101.836" y="155.639" fill="none" width="100.096" height="21.552"/>
	<path fill="#5F5F9B" d="M201.38,174.692c0.23-0.03,0.47-0.04,0.7-0.061c0.34-0.01,0.67-0.05,0.99-0.13
		C202.51,174.532,201.94,174.591,201.38,174.692z M179.22,180.011c-3.21,0.91-6.5,1.48-9.81,1.721c3.34-0.16,6.64-0.73,9.84-1.721
		c0.43-0.18,0.86-0.35,1.29-0.52C180.1,179.662,179.66,179.832,179.22,180.011z M158.06,181.221c0.32,0.12,0.65,0.2,0.98,0.221
		C158.7,181.412,158.37,181.332,158.06,181.221z M104.94,172.322c-0.13,0.02-0.27,0.029-0.4,0.05c0.14-0.01,0.28-0.03,0.42-0.04
		c1.58-0.14,3.16-0.25,4.74-0.33C108.11,172.072,106.52,172.171,104.94,172.322z"/>
	<path fill="#89DBBA" d="M139.814,122.964c-4.191-4.724-6.441-10.856-6.29-17.171c6.437,0.117,12.628,2.465,17.521,6.651
		c4.002,4.805,6.057,10.936,5.77,17.185C150.542,129.466,144.527,127.106,139.814,122.964"/>
	<path fill="#B1F1A8" d="M177.221,124.941c6.271-4.786,10.898-11.396,13.238-18.924c-7.462-1.454-15.188-0.261-21.867,3.362
		c-5.801,4.568-9.682,11.142-10.898,18.42C164.32,129.54,171.37,128.51,177.221,124.941"/>
	<rect x="85.787" y="11.563" fill="#89DBBA" width="140.625" height="75"/>
	<path fill="#B1F1A8" d="M212.35,63.125c-5.174,0-9.375,4.2-9.375,9.375h-93.748c0-5.175-4.195-9.375-9.375-9.375V35
		c5.18,0,9.375-4.2,9.375-9.375h93.748c0,5.175,4.201,9.375,9.375,9.375V63.125z"/>
	<g opacity="0.2" enable-background="new    ">
		<g>
			<g>
				<defs>
					<rect id="SVGID_1_" x="85.789" y="49.063" width="140.623" height="37.5"/>
				</defs>
				<clipPath id="SVGID_2_">
					<use xlink:href="#SVGID_1_"  overflow="visible"/>
				</clipPath>
				<rect x="85.787" y="49.063" clip-path="url(#SVGID_2_)" fill="#2C4B75" width="140.625" height="37.5"/>
			</g>
		</g>
	</g>
	<path fill="#89DBBA" d="M156.1,25.625c10.784,0,19.537,10.49,19.537,23.438S166.884,72.5,156.1,72.5
		c-10.785,0-19.531-10.49-19.531-23.438S145.314,25.625,156.1,25.625"/>
	<path fill="#5F5F9B" d="M212.35,30.312c-1.29,0-2.46-0.52-3.31-1.37s-1.38-2.03-1.38-3.32c0-2.59-2.101-4.69-4.69-4.69h-93.75
		c-2.58,0-4.68,2.11-4.68,4.69c0,1.29-0.53,2.47-1.38,3.32c-0.84,0.85-2.02,1.37-3.31,1.37c-2.59,0-4.69,2.1-4.69,4.69v28.13
		c0,2.59,2.11,4.68,4.69,4.68c1.29,0,2.47,0.53,3.31,1.38c0.85,0.84,1.38,2.02,1.38,3.31c0,2.59,2.1,4.69,4.69,4.69h93.75
		c2.59,0,4.68-2.1,4.68-4.69c0.01-2.59,2.109-4.68,4.689-4.69h0.011c2.59,0,4.68-2.1,4.68-4.69v-28.13
		C217.04,32.401,214.94,30.312,212.35,30.312z M113.11,67.812c-1.42-4-4.57-7.14-8.57-8.57v-20.36c4-1.42,7.15-4.57,8.57-8.57h24.96
		c-3.85,4.98-6.19,11.56-6.19,18.75s2.34,13.77,6.19,18.75H113.11z M141.26,49.062c0-10.34,6.65-18.75,14.84-18.75
		c8.181,0,14.851,8.41,14.851,18.75s-6.66,18.75-14.851,18.75C147.91,67.812,141.26,59.401,141.26,49.062z M207.66,59.242
		c-3.99,1.43-7.141,4.57-8.57,8.57h-24.96c3.86-4.98,6.2-11.56,6.2-18.75s-2.34-13.77-6.2-18.75h24.96c1.43,4,4.58,7.14,8.57,8.57
		V59.242z"/>
	<path fill="#6D6DAA" d="M118.602,46.719c1.293,0,2.344,1.051,2.344,2.344s-1.051,2.344-2.344,2.344s-2.344-1.051-2.344-2.344
		S117.308,46.719,118.602,46.719"/>
	<path fill="#6D6DAA" d="M118.602,56.094c-3.882,0-7.031-3.149-7.031-7.031s3.149-7.031,7.031-7.031
		c3.886,0,7.031,3.149,7.031,7.031S122.483,56.089,118.602,56.094 M118.602,46.719c-1.293,0-2.344,1.051-2.344,2.344
		s1.05,2.344,2.344,2.344c1.293,0,2.344-1.051,2.344-2.344S119.895,46.719,118.602,46.719"/>
	<path fill="#6D6DAA" d="M193.6,46.719c1.295,0,2.344,1.051,2.344,2.344s-1.049,2.344-2.344,2.344c-1.291,0-2.344-1.051-2.344-2.344
		S192.309,46.719,193.6,46.719"/>
	<path fill="#6D6DAA" d="M193.6,56.094c-3.883,0-7.031-3.149-7.031-7.031s3.148-7.031,7.031-7.031c3.892,0,7.031,3.149,7.031,7.031
		S197.48,56.089,193.6,56.094 M193.6,46.719c-1.291,0-2.344,1.051-2.344,2.344s1.053,2.344,2.344,2.344
		c1.295,0,2.344-1.051,2.344-2.344S194.895,46.719,193.6,46.719"/>
	<path fill="#F9E2DC" d="M224.059,146.329c-9.183,5.933-17.088,13.649-23.244,22.687l0.045,1.034
		c6.4-1.08,12.941,0.935,17.625,5.438c6.976-9.005,15.308-16.864,24.699-23.301c0.66-0.478,1.365-0.938,2.016-1.358l-0.279-0.473
		C242.575,143.233,235.971,138.636,224.059,146.329"/>
	<path fill="#F9E2DC" d="M250.545,167.139c3.771-3.443,9.082-4.643,13.971-3.141l0.185-2.062
		c5.157-11.865-6.185-19.221-19.501-11.104c-0.649,0.412-1.354,0.883-2.016,1.354c-9.393,6.437-17.725,14.291-24.699,23.296
		c2.188,2.678,3.336,6.057,3.23,9.518c0,5.951-2.902,10.125-9.375,14.438c-7.277,4.775-15.518,7.896-24.138,9.143
		c18.187-1.035,22.97-3.285,22.548-3.706C221.92,189.736,236.316,179.447,250.545,167.139"/>
	<path fill="#F7C1BA" d="M176.107,209.514c4.5-0.422,8.529-0.751,12.095-0.936c8.614-1.244,16.858-4.365,24.138-9.142
		c6.473-4.312,9.375-8.485,9.375-14.438c0.102-3.461-1.043-6.838-3.23-9.517c-4.684-4.5-11.226-6.515-17.625-5.438
		c-8.006,0.674-15.865,2.551-23.301,5.58c-5.85,1.565-11.947,1.959-17.953,1.172c-17.293-7.635-36.241-10.774-55.076-9.146
		c-23.344,2.115-45.655,14.026-60.938,12.662H15.467v65.625H67.03c9.375,0,42.188,18.75,60.938,18.75
		c18.748,0,89.297-20.901,93.748-23.438c4.688-2.627,32.584-42.379,45.703-59.391c6.706-8.674,3.287-15.705-2.901-17.861
		c-4.89-1.502-10.199-0.303-13.972,3.142c-14.228,12.309-28.458,22.847-39.629,37.986c0.423,0.421-4.526,2.419-22.714,3.454
		c-2.098,0.35-4.207,0.563-6.331,0.655C179.999,209.327,178.076,209.417,176.107,209.514"/>
	<path fill="#CC8F7F" d="M128.846,245.059c18.748,0,88.416-15.335,92.869-17.871c4.688-2.627,21.68-29.297,36.035-45.996
		c1.909-2.225,13.303-3.965,8.203,2.637c-13.124,17.012-39.551,54.795-44.238,57.422c-4.453,2.537-74.994,23.438-93.745,23.438
		c-18.75,0-51.567-18.75-60.942-18.75H15.47v-14.063h51.558C76.402,231.875,110.096,245.059,128.846,245.059"/>
	<path fill="#D8A291" d="M133.696,225.191c-4.035,1.364,10.648,5.026,22.687,3.168c12.049-1.866,25.367-15.733,46.168-18.957
		c-0.65-4.211-26.604-0.297-38.65,1.576C151.859,212.842,145.148,221.329,133.696,225.191"/>
	<g>
		<g>
			<defs>
				<rect id="SVGID_3_" x="15.467" y="163.357" width="255.531" height="51.524"/>
			</defs>
			<clipPath id="SVGID_4_">
				<use xlink:href="#SVGID_3_"  overflow="visible"/>
			</clipPath>
			<path clip-path="url(#SVGID_4_)" fill="#FFFFFF" d="M43.592,180.313c15.28,1.359,37.594-10.547,60.938-12.657
				c18.834-1.639,37.783,1.507,55.076,9.142c6.006,0.783,12.104,0.39,17.953-1.172c7.443-3.029,15.291-4.912,23.301-5.576
				c6.399-1.079,12.941,0.936,17.625,5.439c2.188,2.674,3.332,6.051,3.23,9.512c0.037,2.386-0.549,4.742-1.703,6.834
				c-0.421-0.813-0.934-1.584-1.527-2.282c-4.684-4.505-11.226-6.521-17.625-5.439c-8.01,0.664-15.856,2.546-23.301,5.576
				c-5.85,1.558-11.947,1.955-17.953,1.172c-17.293-7.636-36.24-10.78-55.076-9.142c-23.344,2.109-45.658,14.017-60.938,12.656
				H15.467v-14.063H43.592z"/>
		</g>
		<g>
			<defs>
				<rect id="SVGID_5_" x="15.467" y="163.357" width="255.531" height="51.524"/>
			</defs>
			<clipPath id="SVGID_6_">
				<use xlink:href="#SVGID_5_"  overflow="visible"/>
			</clipPath>
			<path clip-path="url(#SVGID_6_)" fill="#FFFFFF" d="M264.516,178.061c-4.889-1.502-10.203-0.303-13.971,3.141
				c-11.531,9.823-21.686,21.157-30.193,33.683c-13.478-0.787-4.103-14.063,1.199-18.091c8.807-10.688,18.502-20.608,28.994-29.653
				c3.768-3.443,9.082-4.644,13.971-3.142c5.832,2.032,9.096,8.424,3.842,16.416C267.264,179.36,265.953,178.555,264.516,178.061"/>
		</g>
	</g>
	<path fill="#505070" d="M174.84,214.297c-2.586,0-4.688-2.098-4.688-4.688s2.102-4.688,4.688-4.688
		c0.191-0.026,0.375-0.045,0.559-0.045l0.709-0.047c2.588-0.009,4.688,2.092,4.688,4.68c0,2.545-2.026,4.632-4.571,4.688
		c-0.201,0.02-0.705,0.047-0.824,0.047C175.215,214.278,175.031,214.292,174.84,214.297"/>
	<path fill="#5F5F9B" d="M187.6,203.921c-0.06,0.01-0.13,0.021-0.189,0.03c-1.9,0.32-3.83,0.52-5.771,0.609l-5.76,0.271
		C180.23,204.421,184.13,204.112,187.6,203.921z"/>
	<path fill="#5F5F9B" d="M192.32,212.622c-1.101,0.28-2.24,0.49-3.431,0.59C190.04,213.042,191.18,212.851,192.32,212.622z"/>
	<path fill="#5F5F9B" d="M185.41,177.792c5.12-1.58,10.39-2.61,15.75-3.07c0.04-0.01,0.07-0.01,0.109-0.02
		C195.88,175.141,190.56,176.171,185.41,177.792z M175.93,171.242c4.33-1.69,8.79-3.08,13.311-4.15
		C184.7,168.101,180.25,169.482,175.93,171.242z M166,181.772c-2.08,0-4.35-0.101-6.79-0.311c-0.06,0-0.11-0.01-0.17-0.02
		c0.05,0.02,0.11,0.02,0.16,0.029c3.39,0.44,6.819,0.521,10.21,0.261C168.28,181.801,167.14,181.811,166,181.772z M156.02,180.452
		c0.711,0.28,1.37,0.53,1.98,0.75C157.39,180.982,156.73,180.721,156.02,180.452z M117.14,162.542c13.24,0.33,26.34,2.96,38.7,7.75
		C143.47,165.452,130.37,162.832,117.14,162.542z"/>
	<path fill="#5F5F9B" d="M43.59,175.622H15.45c-2.58,0.01-4.67,2.1-4.67,4.689c0,2.591,2.1,4.69,4.68,4.69l27.72-0.02
		c5.7,0.52,12.08-0.58,18.88-2.311v-9.51C56.02,174.662,49.83,175.482,43.59,175.622z M20.15,241.251c-0.41,0-0.81,0.05-1.19,0.16
		c0.35,3.07,0.73,6.14,1.15,9.21h41.95v-9.37H20.15z"/>
	<path fill="#5F5F9B" d="M188.87,213.211c-2.24,0.38-4.51,0.61-6.78,0.7l-5.54,0.28c4.431-0.42,8.391-0.74,11.92-0.94
		C188.6,213.242,188.74,213.232,188.87,213.211z"/>
	<path fill="#5F5F9B" d="M204.59,208.851c-3.939,1.66-8.03,2.921-12.229,3.761C196.6,211.542,200.35,209.542,204.59,208.851z"/>
	<path fill="#5F5F9B" d="M221.35,198.131c-0.479,0.58-0.989,1.141-1.54,1.65C220.31,199.221,220.83,198.671,221.35,198.131z"/>
	<path fill="#6AA2E5" d="M66.748,245.938v23.438c-0.014,5.174-4.204,9.356-9.375,9.375H27.701c-4.603-0.004-8.53-3.332-9.281-7.883
		c-5.601-33.031-8.146-66.518-7.595-100.029c0.058-5.133,4.239-9.271,9.375-9.274h37.173c5.171,0.015,9.361,4.202,9.375,9.375
		V245.938z"/>
	<g opacity="0.2" enable-background="new    ">
		<g>
			<g>
				<defs>
					<rect id="SVGID_7_" x="16.882" y="254.095" width="49.866" height="24.655"/>
				</defs>
				<clipPath id="SVGID_8_">
					<use xlink:href="#SVGID_7_"  overflow="visible"/>
				</clipPath>
				<path clip-path="url(#SVGID_8_)" fill="#1A3F68" d="M18.42,256.81c0.693,4.582,4.655,7.933,9.281,7.878h29.672
					c5.171-0.02,9.361-4.202,9.375-9.375v14.063c-0.014,5.174-4.204,9.356-9.375,9.375H27.701c-4.594-0.031-8.499-3.351-9.281-7.877
					C15.467,255.605,17.521,250.333,18.42,256.81"/>
			</g>
		</g>
	</g>
	<g opacity="0.5" enable-background="new    ">
		<g>
			<g>
				<defs>
					<rect id="SVGID_9_" x="10.791" y="161.563" width="55.957" height="23.693"/>
				</defs>
				<clipPath id="SVGID_10_">
					<use xlink:href="#SVGID_9_"  overflow="visible"/>
				</clipPath>
				<path clip-path="url(#SVGID_10_)" fill="#FFFFFF" d="M57.373,175.625H20.2c-5.136,0.004-9.317,4.143-9.375,9.273l-0.004,0.355
					c-0.046-5.245-0.032-10.061,0.004-14.418c0.058-5.133,4.239-9.271,9.375-9.274h37.173c5.171,0.015,9.361,4.202,9.375,9.375V185
					C66.734,179.827,62.544,175.639,57.373,175.625"/>
			</g>
		</g>
	</g>
	<path fill="#5F5F9B" d="M15.45,175.622c-2.58,0.01-4.67,2.1-4.67,4.689c0,2.591,2.1,4.69,4.68,4.69
		C15.43,181.881,15.43,178.751,15.45,175.622z"/>
	<path fill="#5F5F9B" d="M275.2,168.822c-0.92-2.971-2.78-5.511-5.24-7.271c1.8-5.319,0.4-11.3-3.75-15.279
		c-4.62-4.03-11.65-4.601-18.83-1.76c-1.76-2.71-4.35-4.84-7.43-6.04c-6.41-1.67-13.24-0.22-18.431,3.92
		c-7.649,4.88-14.43,10.97-20.1,18.03c-8.2-9.42-23.77-15.85-42.1-17.3c0.33-3.24,1.06-6.56,1.96-9.96
		c1.01,0.1,2.029,0.16,3.05,0.15c5.49,0.08,10.88-1.48,15.479-4.47c7.221-4.8,17.851-20.51,14.591-25.41
		c-0.73-1.1-1.891-1.85-3.19-2.05c-8.06-1.55-16.39-0.38-23.69,3.29c0.061-4.53-0.659-9.04-2.68-13.42h61.58
		c2.58,0,4.68-2.1,4.68-4.69v-75c0-2.59-2.1-4.69-4.689-4.69H85.79c-2.59,0-4.69,2.1-4.69,4.69v75.01c0,2.58,2.11,4.68,4.69,4.68
		h68.12c4.979,6.45,4.92,13.66,3.2,21.66c-0.801-1.31-1.71-2.56-2.71-3.75c-5.73-5.05-13.07-7.9-20.71-8.05
		c-1.3-0.06-2.56,0.42-3.49,1.33c-3.64,3.58-0.02,17.37,6.26,23.8c4.26,3.83,9.46,6.4,15.01,7.49c-0.71,3.01-1.26,6.05-1.529,9.09
		c-23.09,0.34-43.05,8.56-51.03,20.89c-9.33,1.42-18.53,3.63-27.49,6.57c-0.35-7.471-6.5-13.4-14.05-13.41H20.2
		c-7.71,0.02-13.97,6.229-14.06,13.939c-0.57,33.79,2,67.561,7.66,100.87c1.15,6.78,7.02,11.74,13.9,11.761h29.67
		c7.77-0.011,14.06-6.301,14.07-14.07v-17.63c5.1,1.42,10.07,3.27,14.87,5.52c13.95,5.681,29.76,12.12,41.66,12.12
		c18.77,0,90.43-20.85,96.03-24.04c3.48-1.939,10.83-11.479,31.15-39.14c6.05-8.24,11.779-16.03,15.979-21.47
		C274.99,180.402,276.51,174.471,275.2,168.822z M62.06,269.372c0,2.59-2.1,4.689-4.69,4.689H27.7c-2.32,0.011-4.3-1.67-4.66-3.97
		c-1.1-6.47-2.08-12.96-2.93-19.47c-0.42-3.07-0.8-6.14-1.15-9.21c-2.16-18.73-3.33-37.55-3.5-56.41c-2.58,0-4.68-2.1-4.68-4.69
		c0-2.59,2.09-4.68,4.67-4.689c0.01-1.58,0.03-3.16,0.06-4.74c0.03-2.56,2.13-4.63,4.69-4.63h37.17c2.59,0,4.69,2.1,4.69,4.69
		V269.372z M245.92,156.001c0.59-0.42,1.21-0.85,1.72-1.17c5.71-3.48,10.431-3.21,12.41-1.5c1.62,1.41,1.351,3.72,0.86,5.37
		c-4.87-0.16-9.69,1.54-13.41,4.89c-7.47,6.46-14.56,12.33-21.23,18.67c-0.279-2.27-0.96-4.46-2.01-6.489
		C230.52,168.211,237.81,161.551,245.92,156.001z M226.6,150.261c2.841-2.38,6.551-3.46,10.221-2.95
		c0.949,0.461,1.77,1.12,2.399,1.94c-7.95,5.59-15.149,12.19-21.399,19.62c-2.19-1.36-5.021-2.53-8.641-3.14
		C214.13,159.702,220.01,154.482,226.6,150.261z M171.19,113.282c3.779-2.27,8.14-3.36,12.54-3.16c-2.16,4.29-5.271,8.02-9.11,10.91
		c-3.2,2.02-6.93,3.02-10.71,2.9c0.26-0.9,0.52-1.79,0.77-2.7C166.17,118.111,168.39,115.372,171.19,113.282z M90.47,81.872v-65.62
		h131.25v65.62H90.47z M143.17,119.691c-2.16-2.41-3.67-5.33-4.37-8.48c3.32,0.65,6.4,2.21,8.891,4.51
		c2.13,2.37,3.52,5.31,4.01,8.46C148.5,123.481,145.55,121.932,143.17,119.691z M150.15,152.171c0.29,2.07,0.8,4.15,1.54,6.23
		c0.67,1.859,2.43,3.109,4.409,3.12c0.53-0.011,1.07-0.11,1.57-0.28c2.44-0.86,3.71-3.54,2.85-5.99
		c-0.319-0.88-0.569-1.78-0.77-2.68c16.08,1.479,28.16,7.149,34.15,13.54c-1.101,0.21-2.21,0.43-3.301,0.68
		c-0.449,0.1-0.909,0.2-1.359,0.3c-4.521,1.07-8.98,2.46-13.311,4.15h-0.01c-4.99,1.25-10.17,1.569-15.28,0.939
		c-0.689-0.26-1.43-0.55-2.229-0.85c-0.03-0.01-0.07-0.03-0.101-0.04c-0.819-0.34-1.649-0.67-2.47-1
		c-12.359-4.79-25.46-7.42-38.7-7.75c-1.38-0.03-2.76-0.04-4.15-0.02C124.14,155.582,137.04,151.992,150.15,152.171z
		 M263.71,178.992c-4.28,5.54-10.03,13.37-16.12,21.67c-10.04,13.66-25.2,34.31-28.13,36.479c-5.58,2.82-74.33,22.86-91.49,22.86
		c-10.07,0-25.62-6.34-38.13-11.42c-8.28-3.37-14.09-5.69-18.4-6.72v-61.811c0.83-0.24,1.68-0.49,2.52-0.74
		c9.95-3.3,20.2-5.619,30.58-6.939c0.13-0.021,0.27-0.03,0.4-0.05c1.58-0.15,3.17-0.25,4.76-0.32c5.08-0.24,10.14-0.1,15.17,0.41
		c1.63,0.16,3.26,0.36,4.87,0.6c0.23,0.03,0.46,0.061,0.69,0.11c1.57,0.229,3.13,0.51,4.68,0.82c1.99,0.399,3.97,0.859,5.94,1.39
		c0.561,0.14,1.12,0.29,1.67,0.45c4.181,1.16,8.29,2.6,12.311,4.29c0.34,0.13,0.67,0.26,0.989,0.38c0.711,0.27,1.37,0.53,1.98,0.75
		c0.02,0.01,0.04,0.01,0.06,0.02c0.311,0.11,0.641,0.19,0.98,0.221c0.06,0.01,0.11,0.02,0.17,0.02c2.44,0.21,4.71,0.311,6.79,0.311
		c1.14,0.039,2.28,0.029,3.41-0.04c3.31-0.24,6.6-0.811,9.81-1.721c0.44-0.18,0.88-0.35,1.32-0.52c0.88-0.34,1.77-0.67,2.66-0.97
		c0.729-0.261,1.47-0.5,2.21-0.73c5.149-1.62,10.47-2.65,15.859-3.09c0.04,0,0.07-0.01,0.11-0.01c0.561-0.101,1.13-0.16,1.69-0.19
		c4.3-0.27,8.569,1.16,11.84,4.03c1.45,1.84,2.2,4.14,2.12,6.47c0,3.51-1.221,6.49-7.28,10.54c-6.69,4.36-14.25,7.22-22.15,8.38
		c-0.06,0.01-0.13,0.021-0.189,0.03c-1.9,0.32-3.83,0.52-5.771,0.609l-5.76,0.271c-0.17,0.01-0.34,0.03-0.5,0.06
		c-0.09,0-0.18,0.021-0.26,0.04c-0.19-0.02-0.39-0.02-0.59,0c-6.25,0.38-12.471,1.19-18.59,2.431c-0.891,0.189-1.7,0.63-2.341,1.26
		c-5.069,4.7-11.26,8.02-17.97,9.66c-2.19,0.43-3.77,2.35-3.77,4.59c0,2.59,2.09,4.689,4.68,4.689c0.31,0,0.62-0.029,0.92-0.09
		c8.05-1.85,15.49-5.689,21.64-11.18c5.311-1.02,10.67-1.68,16.061-2c0.229-0.02,0.45-0.05,0.66-0.1c0.01,0.01,0.01,0,0.02,0
		c0.07,0.02,0.13,0.02,0.21,0.02h0.05l0.23-0.01l0.22-0.01c4.431-0.42,8.391-0.74,11.92-0.94c0.13-0.01,0.271-0.02,0.4-0.04
		c0.01,0,0.01,0,0.02,0c1.15-0.17,2.29-0.36,3.431-0.59c0.01,0,0.02,0,0.04-0.01c4.239-1.07,7.989-3.07,12.229-3.761
		c3.601-1.51,7.061-3.35,10.351-5.51c1.8-0.96,3.42-2.149,4.85-3.54c0.01,0.01,0.01,0,0.02-0.02c0.5-0.561,1.021-1.11,1.54-1.65
		c9.721-10.21,21.19-17.85,32.25-27.439c2.511-2.36,6.07-3.21,9.37-2.261c1.511,0.45,2.71,1.58,3.24,3.061
		C266.58,174.242,265.66,177.011,263.71,178.992z"/>
	<path fill="#5F5F9B" d="M43.317,260c-1.243-0.011-2.433-0.494-3.328-1.359c-0.446-0.439-0.796-0.967-1.032-1.547
		c-0.224-0.568-0.332-1.172-0.328-1.781c0-1.245,0.488-2.443,1.36-3.328c0.43-0.426,0.943-0.76,1.499-0.988
		c1.158-0.472,2.452-0.472,3.61,0c0.563,0.229,1.068,0.563,1.501,0.988c0.891,0.885,1.396,2.074,1.405,3.328
		c-0.004,0.613-0.13,1.218-0.375,1.781c-0.211,0.59-0.568,1.121-1.03,1.547C45.728,259.506,44.547,259.99,43.317,260L43.317,260z"/>
	<rect x="-8" y="-2.5" fill="none" width="300" height="300"/>
	<rect x="-8" y="-2.5" fill="none" width="300" height="300"/>
	<rect x="-8" y="-2.5" fill="none" width="300" height="300"/>
</g>
</svg>
